<mxfile host="app.diagrams.net" modified="2024-05-22T17:06:43.476Z" agent="Mozilla/5.0 (Windows NT 10.0; Win64; x64) AppleWebKit/537.36 (KHTML, like Gecko) Chrome/125.0.0.0 Safari/537.36 Edg/125.0.0.0" version="24.4.6" etag="7UxbdMkT4q3DUnsm_gxe" type="github">
  <diagram name="PÃ¡gina-1" id="ioVmwmKd5CmPl2-BQMgc">
    <mxGraphModel>
      <root>
        <mxCell id="0" />
        <mxCell id="1" parent="0" />
      </root>
    </mxGraphModel>
  </diagram>
</mxfile>
